# File created by Blade
# Date/Time:  Wed Jan 21 17:10:37 2015
# Frame Rate: 120.000 fps
#------------------------------------------------------
:FULLY-SPECIFIED
:DEGREES
710
root 19.759783 3.307593 -11.555720 -236.133847 4.343004 -185.992016
Spine 66.636184 5.921177 -10.045220
Head -10.962088 -8.120680 4.324985
LeftShoulder 13.502350 -28.987556 -12.796872
LeftArm 17.875679 24.275533 -68.789927
LeftForeArm -69.013651 -0.000000 103.066366
LeftHand -2.168230 0.000000 1.116297
LeftHandThumb1 -26.253704 0.000000 33.147579
RightShoulder 6.796920 11.082861 -26.697925
RightArm 68.885745 5.850688 10.823218
RightForeArm -0.915214 -0.000000 104.311310
RightHand -22.075541 -0.000000 -7.211812
RightHandThumb1 -24.326973 -0.000000 -32.862282
LeftUpLeg -34.984318 32.383974 -2.944410
LeftLeg -1.448855 -0.000000 0.000000
LeftFoot 18.031311 35.455987 -1.182724
LeftToeBase 18.365498 -0.000000 -0.000000
RightUpLeg -112.112960 13.644840 79.234867
RightLeg 113.672917 -0.000000 -0.000000
RightFoot -29.364352 -13.244199 27.725794
RightToeBase 17.145721 -0.000000 -0.000000
711
root 19.757130 3.306869 -11.555788 -236.123035 4.344760 -186.000204
Spine 66.624583 5.915844 -10.072324
Head -10.952522 -8.074627 4.320576
LeftShoulder 13.496786 -28.967205 -12.787515
LeftArm 17.898970 24.226576 -68.774408
LeftForeArm -69.051731 -0.000000 103.063040
LeftHand -2.140853 -0.000000 1.176549
LeftHandThumb1 -26.253704 0.000000 33.147579
RightShoulder 6.768840 11.065551 -26.675116
RightArm 68.816025 5.898087 10.802926
RightForeArm -0.708674 0.000000 104.306442
RightHand -22.234425 -0.000000 -6.934758
RightHandThumb1 -24.326973 -0.000000 -32.862282
LeftUpLeg -35.000542 32.401289 -2.966744
LeftLeg -1.456545 -0.000000 0.000000
LeftFoot 18.031743 35.468742 -1.222394
LeftToeBase 18.370081 -0.000000 -0.000000
RightUpLeg -112.100418 13.624816 79.097187
RightLeg 113.510355 -0.000000 -0.000000
RightFoot -30.578363 -14.536209 27.473003
RightToeBase 16.618840 -0.000000 -0.000000
712
root 19.757425 3.304715 -11.556226 -236.100987 4.370538 -185.994120
Spine 66.595011 5.901244 -10.094623
Head -10.935100 -7.999879 4.322754
LeftShoulder 13.478136 -28.960084 -12.761112
LeftArm 17.897335 24.164774 -68.785948
LeftForeArm -69.038434 0.000000 103.066809
LeftHand -2.131491 -0.000000 1.178245
LeftHandThumb1 -26.253704 0.000000 33.147579
RightShoulder 6.758679 11.019085 -26.650882
RightArm 68.767009 5.983408 10.739383
RightForeArm -0.348211 -0.000000 104.252359
RightHand -22.284227 0.000000 -6.700501
RightHandThumb1 -24.326973 -0.000000 -32.862282
LeftUpLeg -35.044268 32.420944 -2.961713
LeftLeg -1.438267 -0.000000 0.000000
LeftFoot 18.046967 35.481307 -1.228411
LeftToeBase 18.369258 -0.000000 -0.000000
RightUpLeg -112.083210 13.618076 79.007107
RightLeg 113.346091 -0.000000 -0.000000
RightFoot -31.917799 -15.916802 27.673467
RightToeBase 17.023613 -0.000000 -0.000000
713
root 19.755607 3.303634 -11.556498 -236.081328 4.385078 -185.997123
Spine 66.574678 5.890660 -10.118651
Head -10.945336 -7.944665 4.330279
LeftShoulder 13.479795 -28.971746 -12.755910
LeftArm 17.882411 24.117950 -68.790728
LeftForeArm -69.026448 -0.000000 103.096845
LeftHand -2.154072 0.000000 1.199587
LeftHandThumb1 -26.253704 0.000000 33.147579
RightShoulder 6.722136 10.966892 -26.636002
RightArm 68.728561 6.079824 10.690728
RightForeArm -0.011348 -0.000000 104.237534
RightHand -22.234099 -0.000000 -6.454078
RightHandThumb1 -24.326973 -0.000000 -32.862282
LeftUpLeg -35.083467 32.449413 -2.981218
LeftLeg -1.429612 -0.000000 0.000000
LeftFoot 18.067752 35.494880 -1.212893
LeftToeBase 18.418335 -0.000000 -0.000000
RightUpLeg -112.069565 13.610886 78.892309
RightLeg 113.186917 -0.000000 -0.000000
RightFoot -33.103008 -17.582422 27.553250
RightToeBase 17.032706 -0.000000 -0.000000
714
root 19.754400 3.303210 -11.557523 -236.074451 4.399206 -185.999585
Spine 66.564015 5.892791 -10.143669
Head -10.967526 -7.920597 4.366055
LeftShoulder 13.485171 -28.923126 -12.725094
LeftArm 17.924878 24.042303 -68.782688
LeftForeArm -69.013529 -0.000000 103.123134
LeftHand -2.172135 -0.000000 1.173674
LeftHandThumb1 -26.253704 0.000000 33.147579
RightShoulder 6.698638 10.941180 -26.611982
RightArm 68.650487 6.151819 10.642629
RightForeArm 0.262845 -0.000000 104.282760
RightHand -22.663620 -0.000000 -6.015965
RightHandThumb1 -24.326973 -0.000000 -32.862282
LeftUpLeg -35.099371 32.475047 -2.988853
LeftLeg -1.434281 -0.000000 0.000000
LeftFoot 18.113819 35.515407 -1.174793
LeftToeBase 18.403119 -0.000000 -0.000000
RightUpLeg -112.071471 13.595096 78.778735
RightLeg 113.060466 -0.000000 -0.000000
RightFoot -34.129672 -19.335429 27.578139
RightToeBase 16.480440 -0.000000 -0.000000
715
root 19.749923 3.305107 -11.558571 -236.080106 4.385735 -186.022161
Spine 66.567546 5.898843 -10.210639
Head -11.007779 -7.858752 4.391472
LeftShoulder 13.498950 -28.956159 -12.703745
LeftArm 17.882693 23.985913 -68.819030
LeftForeArm -68.963972 -0.000000 103.150212
LeftHand -2.181178 -0.000000 1.118518
LeftHandThumb1 -26.253704 0.000000 33.147579
RightShoulder 6.670216 10.878931 -26.585024
RightArm 68.611218 6.268497 10.601488
RightForeArm 0.677371 -0.000000 104.283393
RightHand -22.881309 -0.000000 -5.769348
RightHandThumb1 -24.326973 -0.000000 -32.862282
LeftUpLeg -35.087970 32.509085 -3.032157
LeftLeg -1.465235 -0.000000 0.000000
LeftFoot 18.161439 35.548282 -1.164710
LeftToeBase 18.406722 -0.000000 -0.000000
RightUpLeg -112.090802 13.560607 78.614323
RightLeg 112.945189 -0.000000 -0.000000
RightFoot -35.114367 -21.085937 27.764266
RightToeBase 16.082343 -0.000000 -0.000000
716
root 19.747511 3.305545 -11.559810 -236.070022 4.381337 -186.039592
Spine 66.548821 5.902729 -10.272672
Head -11.028180 -7.809822 4.434313
LeftShoulder 13.482827 -28.969709 -12.685762
LeftArm 17.875488 23.983405 -68.791622
LeftForeArm -69.078113 0.000000 103.195670
LeftHand -2.118717 -0.000000 1.181590
LeftHandThumb1 -26.253704 0.000000 33.147579
RightShoulder 6.639427 10.828301 -26.560447
RightArm 68.580770 6.384412 10.522688
RightForeArm 1.203248 -0.000000 104.252364
RightHand -23.156624 -0.000000 -4.994090
RightHandThumb1 -24.326973 -0.000000 -32.862282
LeftUpLeg -35.097932 32.528964 -3.061148
LeftLeg -1.478758 -0.000000 0.000000
LeftFoot 18.187196 35.592059 -1.166932
LeftToeBase 18.370863 -0.000000 -0.000000
RightUpLeg -112.108542 13.545839 78.463036
RightLeg 112.847375 -0.000000 -0.000000
RightFoot -36.068427 -22.941787 27.995234
RightToeBase 15.356639 -0.000000 -0.000000
717
root 19.745308 3.305709 -11.561093 -236.056091 4.390731 -186.056996
Spine 66.527096 5.915824 -10.308625
Head -11.058131 -7.770438 4.474256
LeftShoulder 13.526322 -29.085498 -12.686247
LeftArm 17.721284 23.977853 -68.863931
LeftForeArm -69.075509 -0.000000 103.210938
LeftHand -2.082799 -0.000000 1.130675
LeftHandThumb1 -26.253704 0.000000 33.147579
RightShoulder 6.632562 10.838130 -26.536942
RightArm 68.490933 6.415380 10.420454
RightForeArm 1.723174 0.000000 104.185758
RightHand -22.917144 -0.000000 -4.840893
RightHandThumb1 -24.326973 -0.000000 -32.862282
LeftUpLeg -35.115153 32.555056 -3.079156
LeftLeg -1.483391 -0.000000 0.000000
LeftFoot 18.195732 35.610789 -1.140830
LeftToeBase 18.422046 -0.000000 -0.000000
RightUpLeg -112.127698 13.522739 78.299511
RightLeg 112.744899 -0.000000 -0.000000
RightFoot -37.026251 -24.783527 28.080053
RightToeBase 14.413172 -0.000000 -0.000000
